# xmcd
#
# Track frame offsets: 
#        150
#        15390
#        30375
#        43425
#
# Disc length: 771 seconds
#
# Revision: 0
# Processed by: cddbd v1.5.2PL0 Copyright (c) Steve Scherf et al.
# Submitted via: ExactAudioCopyFreeDBPlugin 1.0
#
DISCID=27030104
DTITLE=Alice Carter - Midnight Blues
DYEAR=2015
DGENRE=Blues
TTITLE0=Midnight Blues
TTITLE1=If You Want To Keep Your Daddy Home
TTITLE2=Bleeding Heart Blues
TTITLE3=I Just Want A Daddy
EXTD=
EXTT0=
EXTT1=
EXTT2=
EXTT3=
PLAYORDER=
